<?xml version="1.0" encoding="UTF-8" standalone="no"?>
<!-- Created with Inkscape (http://www.inkscape.org/) -->

<svg
   xmlns:dc="http://purl.org/dc/elements/1.1/"
   xmlns:cc="http://creativecommons.org/ns#"
   xmlns:rdf="http://www.w3.org/1999/02/22-rdf-syntax-ns#"
   xmlns:svg="http://www.w3.org/2000/svg"
   xmlns="http://www.w3.org/2000/svg"
   xmlns:sodipodi="http://sodipodi.sourceforge.net/DTD/sodipodi-0.dtd"
   xmlns:inkscape="http://www.inkscape.org/namespaces/inkscape"
   width="744.09448819"
   height="1052.3622047"
   id="svg2"
   version="1.1"
   inkscape:version="0.48.0 r9654"
   sodipodi:docname="pet.svg">
  <defs
     id="defs4" />
  <sodipodi:namedview
     id="base"
     pagecolor="#ffffff"
     bordercolor="#666666"
     borderopacity="1.0"
     inkscape:pageopacity="0.0"
     inkscape:pageshadow="2"
     inkscape:zoom="0.7"
     inkscape:cx="157.21928"
     inkscape:cy="435.27028"
     inkscape:document-units="px"
     inkscape:current-layer="layer10"
     showgrid="false"
     inkscape:window-width="1453"
     inkscape:window-height="840"
     inkscape:window-x="1969"
     inkscape:window-y="153"
     inkscape:window-maximized="0" />
  <metadata
     id="metadata7">
    <rdf:RDF>
      <cc:Work
         rdf:about="">
        <dc:format>image/svg+xml</dc:format>
        <dc:type
           rdf:resource="http://purl.org/dc/dcmitype/StillImage" />
        <dc:title></dc:title>
      </cc:Work>
    </rdf:RDF>
  </metadata>
  <g
     inkscape:groupmode="layer"
     id="layer5"
     inkscape:label="arm2">
    <path
       style="fill:#b3b3b3;stroke:none"
       d="m 447.81053,520.30724 c 7.68905,47.73066 -2.38449,82.56846 13.97126,129.42472 12.48201,33.38072 19.06435,74.0926 45.38975,63.75195 17.86811,-7.01856 33.92552,-14.93452 25.9767,-56.13774 -3.469,-17.98167 -21.40195,-35.69185 -37.94881,-59.53972 -22.24119,-32.05473 -40.81604,-78.18998 -47.3889,-77.49921 z"
       id="path3018-9"
       inkscape:connector-curvature="0"
       sodipodi:nodetypes="ccsssc" />
  </g>
  <g
     inkscape:groupmode="layer"
     id="layer6"
     inkscape:label="leg1">
    <path
       style="fill:#b3b3b3;stroke:none"
       d="m 320.08267,666.61278 c 0,0 42.65648,4.13098 45.63252,25.34094 4.85025,37.62552 15.54499,99.32397 -14.96189,101.40264 -10.97164,0.22021 -37.02145,-1.52516 -64.39901,-42.91373 -32.73637,-49.48992 33.72838,-83.82985 33.72838,-83.82985 z"
       id="path3827"
       inkscape:connector-curvature="0"
       sodipodi:nodetypes="cccsc" />
  </g>
  <g
     inkscape:groupmode="layer"
     id="layer7"
     inkscape:label="leg2">
    <path
       style="fill:#b3b3b3;stroke:none"
       d="m 462.80043,653.99793 c 0,0 -36.05333,8.43279 -36.87788,30.60997 -1.09668,39.29937 -5.23343,104.01058 20.95778,103.17319 9.37689,-0.84536 31.45706,-5.193 51.46606,-50.57768 23.92551,-54.26819 -35.54596,-83.20548 -35.54596,-83.20548 z"
       id="path3827-1"
       inkscape:connector-curvature="0"
       sodipodi:nodetypes="cccsc" />
  </g>
  <g
     inkscape:groupmode="layer"
     id="layer2"
     inkscape:label="body">
    <path
       style="fill:#999999;stroke:none"
       d="m 381.24109,472.56992 c 41.39955,15.1997 58.87916,40.62224 73.46987,69.49589 18.57431,36.75684 29.15851,78.27939 42.48182,102.43246 36.49743,66.16421 -6.57942,109.12297 -107.95503,113.28615 -104.33049,4.28451 -139.01808,-38.46098 -122.61559,-119.95002 7.33574,-36.44459 25.97674,-64.5064 39.16468,-93.27633 15.27197,-33.31631 27.54911,-65.08236 75.45425,-71.98815 z"
       id="path2995"
       inkscape:connector-curvature="0"
       sodipodi:nodetypes="csssssc" />
  </g>
  <g
     inkscape:groupmode="layer"
     id="layer4"
     inkscape:label="arm1">
    <path
       style="fill:#b3b3b3;stroke:none"
       d="m 302.67362,533.44415 c 3.09411,0.41264 -0.58831,27.72691 -2.27302,63.19752 -1.74804,36.80395 -0.98521,80.13459 -6.1724,98.94275 -9.47504,34.35546 -31.19448,37.04611 -49.55795,36.86932 -16.58977,-0.15972 -23.90666,-21.57343 -19.52028,-64.27735 4.38636,-42.70397 65.9991,-134.91644 77.52365,-134.73224 z"
       id="path3018"
       inkscape:connector-curvature="0"
       sodipodi:nodetypes="cssssc" />
  </g>
  <g
     inkscape:label="head"
     inkscape:groupmode="layer"
     id="layer1">
    <path
       style="fill:#999999;stroke:none"
       d="m 220.20809,424.52018 c 16.77046,-104.01743 85.38466,-123.53971 154.80444,-130.36851 76.92736,-7.5673 144.72051,50.85547 161.25462,127.5947 18.61034,86.37565 -6.62542,134.85958 -129.0037,142.85059 -118.03143,7.70717 -194.21024,-1.42839 -187.05536,-140.07678 z"
       id="path2985"
       inkscape:connector-curvature="0"
       sodipodi:nodetypes="csssc" />
  </g>
  <g
     inkscape:groupmode="layer"
     id="layer10"
     inkscape:label="ears">
    <path
       style="fill:#999999;stroke:none"
       d="m 305.17391,307.55962 c -37.90761,-7.01505 -92.93177,45.6924 -128.37314,56.38027 -87.941129,26.5199 -3.60402,72.32479 35.32894,68.84211 38.93293,-3.4827 79.53282,3.25706 91.39761,-53.12284 11.8648,-56.37987 10.74157,-67.80484 1.64659,-72.09954 z"
       id="path3943"
       inkscape:connector-curvature="0"
       sodipodi:nodetypes="csssc" />
    <path
       style="fill:#999999;stroke:none"
       d="m 414.77101,303.95967 c 40.63027,-7.01506 99.60648,45.69239 137.59339,56.38026 94.25741,26.51991 3.86288,72.3248 -37.86639,68.84212 -41.72925,-3.4827 -85.24517,3.25706 -97.96215,-53.12284 -12.71697,-56.37988 -11.51306,-67.80485 -1.76485,-72.09954 z"
       id="path3943-5"
       inkscape:connector-curvature="0"
       sodipodi:nodetypes="csssc" />
  </g>
  <g
     inkscape:groupmode="layer"
     id="layer9"
     inkscape:label="horns">
    <path
       style="fill:#e6e6e6;stroke:none"
       d="m 347.17697,226.70262 c -8.23052,-15.98132 -20.77308,30.20346 -31.696,51.26946 -10.28849,19.84243 -29.8581,28.48351 -35.60206,44.81054 -3.91407,11.12569 -2.62859,28.63575 25.38977,36.14722 60.65368,11.68773 61.20143,-79.33052 41.90829,-132.22722 z"
       id="path3922"
       inkscape:connector-curvature="0"
       sodipodi:nodetypes="csscc" />
    <path
       style="fill:#e6e6e6;stroke:none"
       d="m 506.285,218.48293 c -8.23051,-15.98132 -20.77308,30.20346 -31.69599,51.26946 -10.2885,19.84243 -29.85811,28.48351 -35.60206,44.81054 -3.91408,11.12569 -2.62859,28.63575 25.38977,36.14722 60.65367,11.68773 61.20142,-79.33052 41.90828,-132.22722 z"
       id="path3922-5"
       inkscape:connector-curvature="0"
       sodipodi:nodetypes="csscc" />
  </g>
  <g
     inkscape:groupmode="layer"
     id="layer8"
     inkscape:label="face">
    <path
       sodipodi:type="arc"
       style="fill:#333333;stroke:none"
       id="path3855"
       sodipodi:cx="270.21582"
       sodipodi:cy="371.01428"
       sodipodi:rx="9.5964489"
       sodipodi:ry="9.5964489"
       d="m 279.81227,371.01428 a 9.5964489,9.5964489 0 1 1 -19.1929,0 9.5964489,9.5964489 0 1 1 19.1929,0 z"
       transform="matrix(1.8658893,0,0,1.8658893,-189.07671,-206.60278)" />
    <path
       sodipodi:type="arc"
       style="fill:#333333;fill-opacity:1;stroke:none"
       id="path3855-1"
       sodipodi:cx="270.21582"
       sodipodi:cy="371.01428"
       sodipodi:rx="9.5964489"
       sodipodi:ry="9.5964489"
       d="m 279.81227,371.01428 a 9.5964489,9.5964489 0 1 1 -19.1929,0 9.5964489,9.5964489 0 1 1 19.1929,0 z"
       transform="matrix(1.6694799,0,0,1.7617274,27.976621,-178.26665)" />
    <path
       sodipodi:type="arc"
       style="fill:#333333;stroke:none"
       id="path3855-9"
       sodipodi:cx="270.21582"
       sodipodi:cy="371.01428"
       sodipodi:rx="9.5964489"
       sodipodi:ry="9.5964489"
       d="m 279.81227,371.01428 a 9.5964489,9.5964489 0 1 1 -19.1929,0 9.5964489,9.5964489 0 1 1 19.1929,0 z"
       transform="matrix(1.0658699,0,0,-0.95015938,121.20477,842.48957)" />
    <path
       style="fill:none;stroke:#333333;stroke-width:5.59766769;stroke-linecap:round;stroke-linejoin:round;stroke-miterlimit:4;stroke-opacity:1;stroke-dasharray:none"
       d="m 409.98366,493.71978 c -12.99088,18.0513 -18.74044,21.96185 -19.99286,22.50365"
       id="path3897"
       inkscape:connector-curvature="0"
       sodipodi:nodetypes="cc" />
    <path
       style="fill:none;stroke:#333333;stroke-width:5.41107893;stroke-linecap:round;stroke-linejoin:round;stroke-miterlimit:4;stroke-opacity:1;stroke-dasharray:none"
       d="m 406.27811,489.69429 c 12.09595,17.15636 24.32892,22.33357 25.876,23.17003"
       id="path3897-1"
       inkscape:connector-curvature="0"
       sodipodi:nodetypes="cc" />
  </g>
</svg>
